<?xml version="1.0" ?><svg height="32" id="svg17515" version="1.1" viewBox="0 0 32 32.000001" width="32" xmlns="http://www.w3.org/2000/svg" xmlns:cc="http://creativecommons.org/ns#" xmlns:dc="http://purl.org/dc/elements/1.1/" xmlns:inkscape="http://www.inkscape.org/namespaces/inkscape" xmlns:rdf="http://www.w3.org/1999/02/22-rdf-syntax-ns#" xmlns:sodipodi="http://sodipodi.sourceforge.net/DTD/sodipodi-0.dtd" xmlns:svg="http://www.w3.org/2000/svg"><defs id="defs17517"><clipPath clipPathUnits="userSpaceOnUse" id="clipPath32617-9-8-8-9"><circle cx="-64.623535" cy="50.047192" id="path32619-2-3-5-1" r="38.553814" style="fill:#4bb7c0;fill-opacity:1;stroke:none" transform="matrix(9.3443438,0,0,9.3443438,-627.91229,-5859.5225)"/></clipPath><clipPath clipPathUnits="userSpaceOnUse" id="clipPath19550"><circle cx="-64.623535" cy="50.047192" id="circle19552" r="38.553814" style="fill:#4bb7c0;fill-opacity:1;stroke:none" transform="matrix(9.3443438,0,0,9.3443438,-627.91229,-5859.5225)"/></clipPath></defs><g id="layer1" transform="translate(0,-1020.3622)"><g id="g42293" style="display:inline" transform="matrix(1.0005546,0,0,1.0004443,525.78226,81.184001)"><path d="m -496.53251,960.10065 c 0.3647,-0.038 0.71404,0.022 1.0334,0.2099 0.63798,0.3752 0.90465,1.1428 0.92017,2.0091 0.0152,0.8477 -0.21388,1.7824 -0.55581,2.5157 -0.0358,-0.065 -0.0645,-0.1369 -0.10293,-0.1997 -0.45363,-0.7409 -1.09232,-1.2804 -1.88359,-1.2804 -0.3867,0 -0.73728,0.1316 -1.04781,0.3499 -0.31854,-0.6513 -0.76968,-1.2012 -1.33601,-1.476 0.67924,-1.0197 1.88284,-2.0161 2.97258,-2.1285 z" id="path40513" style="color:#000000;font-style:normal;font-variant:normal;font-weight:normal;font-stretch:normal;font-size:medium;line-height:normal;font-family:sans-serif;text-indent:0;text-align:start;text-decoration:none;text-decoration-line:none;text-decoration-style:solid;text-decoration-color:#000000;letter-spacing:normal;word-spacing:normal;text-transform:none;direction:ltr;writing-mode:lr-tb;baseline-shift:baseline;text-anchor:start;white-space:normal;clip-rule:nonzero;display:inline;overflow:visible;visibility:visible;opacity:1;isolation:auto;mix-blend-mode:normal;color-interpolation:sRGB;color-interpolation-filters:linearRGB;solid-color:#000000;solid-opacity:1;fill:#e79983;fill-opacity:1;fill-rule:nonzero;stroke:none;stroke-width:0.07999999;stroke-linecap:round;stroke-linejoin:round;stroke-miterlimit:4;stroke-dasharray:none;stroke-dashoffset:0;stroke-opacity:1;color-rendering:auto;image-rendering:auto;shape-rendering:auto;text-rendering:auto;enable-background:accumulate"/><path d="m -497.11719,-57.560547 0,0.0059 c -0.47855,0 -0.9018,0.197157 -1.27539,0.503907 0.0791,0.127105 0.15525,0.256697 0.22266,0.394531 0.31053,-0.2183 0.66213,-0.351562 1.04883,-0.351562 0.79127,0 1.42918,0.540349 1.88281,1.28125 0.0384,0.0628 0.0677,0.134218 0.10351,0.199218 0.0631,-0.135372 0.11728,-0.282403 0.17188,-0.429687 -0.0369,-0.0671 -0.068,-0.14071 -0.10742,-0.205078 -0.50204,-0.81986 -1.19692,-1.398438 -2.04688,-1.398438 z" id="path42270" style="color:#000000;font-style:normal;font-variant:normal;font-weight:normal;font-stretch:normal;font-size:medium;line-height:normal;font-family:sans-serif;text-indent:0;text-align:start;text-decoration:none;text-decoration-line:none;text-decoration-style:solid;text-decoration-color:#000000;letter-spacing:normal;word-spacing:normal;text-transform:none;direction:ltr;writing-mode:lr-tb;baseline-shift:baseline;text-anchor:start;white-space:normal;clip-rule:nonzero;display:inline;overflow:visible;visibility:visible;opacity:1;isolation:auto;mix-blend-mode:normal;color-interpolation:sRGB;color-interpolation-filters:linearRGB;solid-color:#000000;solid-opacity:1;fill:#d6907c;fill-opacity:1;fill-rule:nonzero;stroke:none;stroke-width:0.08000001;stroke-linecap:round;stroke-linejoin:round;stroke-miterlimit:4;stroke-dasharray:none;stroke-dashoffset:0;stroke-opacity:1;color-rendering:auto;image-rendering:auto;shape-rendering:auto;text-rendering:auto;enable-background:accumulate" transform="translate(0,1020.3622)"/><path d="m -500.11764,961.99724 a 0.04179586,0.04179586 0 0 0 0.004,0 c 0.90001,0 1.59512,0.71516 2.03857,1.6304 -0.29388,0.22296 -0.55136,0.52208 -0.76523,0.87136 -0.44967,0.73438 -0.71979,1.67031 -0.77747,2.49977 -0.0287,0.41353 0.0201,0.78453 0.12244,1.11615 -0.19935,0.0397 -0.40349,0.0669 -0.61831,0.0669 -0.75639,0 -1.42769,-0.24458 -1.89368,-0.69583 -0.466,-0.45114 -0.73002,-1.10894 -0.66932,-1.94676 0.0566,-0.78265 0.32454,-1.67229 0.76523,-2.363 0.43987,-0.68936 1.04836,-1.17769 1.79369,-1.17947 z" id="path40511" style="color:#000000;font-style:normal;font-variant:normal;font-weight:normal;font-stretch:normal;font-size:medium;line-height:normal;font-family:sans-serif;text-indent:0;text-align:start;text-decoration:none;text-decoration-line:none;text-decoration-style:solid;text-decoration-color:#000000;letter-spacing:normal;word-spacing:normal;text-transform:none;direction:ltr;writing-mode:lr-tb;baseline-shift:baseline;text-anchor:start;white-space:normal;clip-rule:nonzero;display:inline;overflow:visible;visibility:visible;opacity:1;isolation:auto;mix-blend-mode:normal;color-interpolation:sRGB;color-interpolation-filters:linearRGB;solid-color:#000000;solid-opacity:1;fill:#43b6c2;fill-opacity:1;fill-rule:nonzero;stroke:none;stroke-width:0.07999999;stroke-linecap:round;stroke-linejoin:round;stroke-miterlimit:4;stroke-dasharray:none;stroke-dashoffset:0;stroke-opacity:1;color-rendering:auto;image-rendering:auto;shape-rendering:auto;text-rendering:auto;enable-background:accumulate"/><path d="m -498.30859,-57.128906 c -0.32653,0.245274 -0.61404,0.578368 -0.85547,0.972656 -0.50203,0.81998 -0.8065,1.875738 -0.8711,2.804688 -0.0297,0.426515 0.0212,0.805143 0.11719,1.15039 0.14263,-0.01076 0.28561,-0.01974 0.42188,-0.04687 -0.10234,-0.33162 -0.1498,-0.701704 -0.1211,-1.115234 0.0577,-0.82946 0.32768,-1.76562 0.77735,-2.5 0.21387,-0.34928 0.47174,-0.648134 0.76562,-0.871094 -0.0683,-0.140885 -0.15436,-0.265006 -0.23437,-0.394531 z" id="path42268" style="color:#000000;font-style:normal;font-variant:normal;font-weight:normal;font-stretch:normal;font-size:medium;line-height:normal;font-family:sans-serif;text-indent:0;text-align:start;text-decoration:none;text-decoration-line:none;text-decoration-style:solid;text-decoration-color:#000000;letter-spacing:normal;word-spacing:normal;text-transform:none;direction:ltr;writing-mode:lr-tb;baseline-shift:baseline;text-anchor:start;white-space:normal;clip-rule:nonzero;display:inline;overflow:visible;visibility:visible;opacity:1;isolation:auto;mix-blend-mode:normal;color-interpolation:sRGB;color-interpolation-filters:linearRGB;solid-color:#000000;solid-opacity:1;fill:#42aab5;fill-opacity:1;fill-rule:nonzero;stroke:none;stroke-width:0.08000001;stroke-linecap:round;stroke-linejoin:round;stroke-miterlimit:4;stroke-dasharray:none;stroke-dashoffset:0;stroke-opacity:1;color-rendering:auto;image-rendering:auto;shape-rendering:auto;text-rendering:auto;enable-background:accumulate" transform="translate(0,1020.3622)"/><path d="m -523.71825,964.34535 c 0.20916,0.008 0.42043,0.0558 0.62305,0.14454 0.004,0.19061 0.003,0.38162 0.0254,0.57031 0.0546,0.4558 0.30565,1.08061 0.54297,1.5957 0.0884,0.19184 0.0985,0.19712 0.17187,0.3418 -0.50074,0.75764 -1.50482,0.99181 -2.28906,0.5332 -0.78506,-0.45909 -1.0729,-1.45139 -0.65625,-2.25976 0.31248,-0.60629 0.93847,-0.94963 1.58203,-0.92579 z" id="path11591" style="color:#000000;font-style:normal;font-variant:normal;font-weight:normal;font-stretch:normal;font-size:medium;line-height:normal;font-family:sans-serif;text-indent:0;text-align:start;text-decoration:none;text-decoration-line:none;text-decoration-style:solid;text-decoration-color:#000000;letter-spacing:normal;word-spacing:normal;text-transform:none;direction:ltr;writing-mode:lr-tb;baseline-shift:baseline;text-anchor:start;white-space:normal;clip-rule:nonzero;display:inline;overflow:visible;visibility:visible;opacity:1;isolation:auto;mix-blend-mode:normal;color-interpolation:sRGB;color-interpolation-filters:linearRGB;solid-color:#000000;solid-opacity:1;fill:#fde8e7;fill-opacity:1;fill-rule:evenodd;stroke:none;stroke-width:0.08;stroke-linecap:butt;stroke-linejoin:miter;stroke-miterlimit:4;stroke-dasharray:none;stroke-dashoffset:0;stroke-opacity:1;color-rendering:auto;image-rendering:auto;shape-rendering:auto;text-rendering:auto;enable-background:accumulate"/><path d="m -523.34375,-55.955078 c -0.003,0.256561 0.003,0.512649 0.0332,0.765625 0.0522,0.43529 0.2992,1.060125 0.53516,1.572265 0.12333,0.267675 0.15397,0.311261 0.24023,0.476563 0.0648,-0.06932 0.12569,-0.142902 0.17969,-0.224609 -0.0734,-0.14468 -0.0835,-0.149957 -0.17187,-0.341797 -0.23732,-0.51509 -0.48837,-1.139903 -0.54297,-1.595703 -0.0224,-0.18869 -0.0214,-0.379703 -0.0254,-0.570313 -0.0815,-0.03568 -0.16448,-0.05951 -0.24805,-0.08203 z" id="path42250" style="color:#000000;font-style:normal;font-variant:normal;font-weight:normal;font-stretch:normal;font-size:medium;line-height:normal;font-family:sans-serif;text-indent:0;text-align:start;text-decoration:none;text-decoration-line:none;text-decoration-style:solid;text-decoration-color:#000000;letter-spacing:normal;word-spacing:normal;text-transform:none;direction:ltr;writing-mode:lr-tb;baseline-shift:baseline;text-anchor:start;white-space:normal;clip-rule:nonzero;display:inline;overflow:visible;visibility:visible;opacity:1;isolation:auto;mix-blend-mode:normal;color-interpolation:sRGB;color-interpolation-filters:linearRGB;solid-color:#000000;solid-opacity:1;fill:#ead7d6;fill-opacity:1;fill-rule:evenodd;stroke:none;stroke-width:0.08;stroke-linecap:butt;stroke-linejoin:miter;stroke-miterlimit:4;stroke-dasharray:none;stroke-dashoffset:0;stroke-opacity:1;color-rendering:auto;image-rendering:auto;shape-rendering:auto;text-rendering:auto;enable-background:accumulate" transform="translate(0,1020.3622)"/><path d="m -510.03711,952.95204 c 0.23506,0.43656 0.51592,0.851 0.87891,1.20508 l 0.002,0.002 0.01,0.01 0.008,0 c 0.48282,0.42684 1.05577,0.74271 1.67969,0.91406 l 0.14453,0.0469 c 0.66585,0.21968 1.36377,0.28278 2.05273,0.22461 l 0.61524,1.79101 c 0.31608,0.94829 0.339,1.96857 0.0645,2.92969 l -0.13477,0.46875 c -0.28991,1.01475 -0.77824,1.96108 -1.4375,2.78516 l -0.77734,0.9707 c -0.14752,0.1844 -0.22852,0.41424 -0.22852,0.65039 l 0,0.0312 c 1e-5,0.39382 0.22394,0.75356 0.57618,0.92969 l 0.44726,0.22461 a 0.040004,0.040004 0 0 0 0.0352,0 l 0.35547,-0.17774 c 0.36972,-0.18484 0.81515,-0.11263 1.10742,0.17969 0.28252,0.29052 0.34836,0.72798 0.16211,1.08789 l -0.16797,0.33399 -1.47461,0 -0.52734,0 c -0.30427,10e-6 -0.6048,-0.071 -0.87696,-0.20704 l -0.10351,-0.0508 c -0.30507,-0.15253 -0.5647,-0.38222 -0.75391,-0.66601 l -0.70508,-1.0586 a 0.040004,0.040004 0 0 0 -0.008,-0.008 0.040004,0.040004 0 0 0 -0.006,-0.008 0.040004,0.040004 0 0 0 -0.041,0.002 c -1.76986,1.14484 -2.89697,1.65877 -4.58204,2.1211 0.0322,-0.07 0.14491,-0.31141 0.29297,-0.70704 0.16772,-0.44815 0.34002,-0.99018 0.35157,-1.3789 0.0206,-0.69475 -0.16358,-1.41693 -0.50586,-2.02149 -0.35258,-0.62271 -0.90747,-1.13905 -1.51368,-1.51367 -0.45527,-0.2814 -0.99282,-0.42104 -1.51562,-0.50586 -0.49785,-0.0807 -1.01387,-0.0807 -1.51172,0 -0.53294,0.0861 -1.50977,0.50391 -1.50977,0.50391 a 0.040004,0.040004 0 0 0 -0.006,0.002 0.040004,0.040004 0 0 0 -0.006,0.006 0.040004,0.040004 0 0 0 -0.006,0.006 0.040004,0.040004 0 0 0 0,0.0449 0.040004,0.040004 0 0 0 0.0137,0.0137 0.040004,0.040004 0 0 0 0.0352,0 c 0,0 0.98272,-0.41414 1.49024,-0.49609 0.48921,-0.0793 0.99907,-0.0793 1.48828,0 0.51764,0.084 1.043,0.22134 1.48438,0.49414 0.59675,0.36878 1.14214,0.87649 1.48632,1.48438 0.33486,0.59144 0.51626,1.30146 0.4961,1.98047 -0.0109,0.36703 -0.17919,0.90661 -0.34571,1.35156 -0.16448,0.43952 -0.32225,0.77867 -0.32617,0.78711 -0.46035,-0.11623 -0.93162,-0.18301 -1.4082,-0.18946 l -1.41797,-0.0156 a 0.040004,0.040004 0 0 0 -0.0215,0.006 0.040004,0.040004 0 0 0 -0.006,0.004 0.040004,0.040004 0 0 0 -0.008,0.01 0.040004,0.040004 0 0 0 0,0.041 0.040004,0.040004 0 0 0 0.004,0.004 0.040004,0.040004 0 0 0 0.002,0.002 0.040004,0.040004 0 0 0 0.004,0.004 0.040004,0.040004 0 0 0 0.002,0.002 0.040004,0.040004 0 0 0 0.008,0.004 0.040004,0.040004 0 0 0 0.0156,0.004 l 1.41797,0.0156 c 0.73456,0.01 1.46062,0.15303 2.14258,0.42578 l 1.14648,0.45899 c 0.17471,0.07 0.28898,0.23956 0.28906,0.42773 l 0,0.16016 c 0,0.25448 -0.20445,0.46094 -0.45898,0.46094 l -4.02734,0 c -0.30431,0 -0.60482,-0.0707 -0.87696,-0.20704 l -0.15625,-0.0781 c -0.28327,-0.14158 -0.59542,-0.21484 -0.91211,-0.21484 l -1.78515,0 c -0.78205,0 -1.53144,-0.31218 -2.08594,-0.86329 l -0.11719,-0.60351 a 0.040004,0.040004 0 0 0 -0.004,-0.0137 c 0,0 -0.22303,-0.39998 -0.45899,-0.91211 -0.23596,-0.51214 -0.48297,-1.13698 -0.53515,-1.57227 -0.13924,-1.16157 0.0933,-2.37963 0.49609,-3.48242 0.53767,-1.47192 1.38519,-2.87734 2.49219,-3.98437 1.1068,-1.10683 2.5183,-1.9353 3.98437,-2.49024 0.94035,-0.35596 1.97916,-0.41398 2.99024,-0.49805 0.58445,-0.0485 1.77343,0 1.77343,0 a 0.040004,0.040004 0 0 0 0.002,0 c 0.44748,0 0.84483,-0.28634 0.98632,-0.71093 z" id="path40631" style="color:#000000;font-style:normal;font-variant:normal;font-weight:normal;font-stretch:normal;font-size:medium;line-height:normal;font-family:sans-serif;text-indent:0;text-align:start;text-decoration:none;text-decoration-line:none;text-decoration-style:solid;text-decoration-color:#000000;letter-spacing:normal;word-spacing:normal;text-transform:none;direction:ltr;writing-mode:lr-tb;baseline-shift:baseline;text-anchor:start;white-space:normal;clip-rule:nonzero;display:inline;overflow:visible;visibility:visible;opacity:1;isolation:auto;mix-blend-mode:normal;color-interpolation:sRGB;color-interpolation-filters:linearRGB;solid-color:#000000;solid-opacity:1;fill:#fffdf5;fill-opacity:1;fill-rule:evenodd;stroke:none;stroke-width:0.08;stroke-linecap:butt;stroke-linejoin:miter;stroke-miterlimit:4;stroke-dasharray:none;stroke-dashoffset:0;stroke-opacity:1;color-rendering:auto;image-rendering:auto;shape-rendering:auto;text-rendering:auto;enable-background:accumulate"/><path d="m -510.03711,952.95204 -0.23437,0.72657 c 0.21094,0.31036 0.45325,0.60057 0.72656,0.86718 0.54762,0.48843 1.20354,0.84424 1.91406,1.03907 l 0.16797,0.0566 c 0.77366,0.25525 1.58497,0.32244 2.38477,0.24609 l -0.1836,-0.5332 c -0.68896,0.0582 -1.38688,-0.005 -2.05273,-0.22461 l -0.14453,-0.0469 c -0.62392,-0.17135 -1.19687,-0.48723 -1.67969,-0.91406 l -0.008,0 -0.01,-0.01 -0.002,-0.002 c -0.36299,-0.35408 -0.64385,-0.76852 -0.87891,-1.20508 z" id="path42245" style="color:#000000;font-style:normal;font-variant:normal;font-weight:normal;font-stretch:normal;font-size:medium;line-height:normal;font-family:sans-serif;text-indent:0;text-align:start;text-decoration:none;text-decoration-line:none;text-decoration-style:solid;text-decoration-color:#000000;letter-spacing:normal;word-spacing:normal;text-transform:none;direction:ltr;writing-mode:lr-tb;baseline-shift:baseline;text-anchor:start;white-space:normal;clip-rule:nonzero;display:inline;overflow:visible;visibility:visible;opacity:1;isolation:auto;mix-blend-mode:normal;color-interpolation:sRGB;color-interpolation-filters:linearRGB;solid-color:#000000;solid-opacity:1;fill:#f6f4ec;fill-opacity:1;fill-rule:evenodd;stroke:none;stroke-width:0.08000001;stroke-linecap:butt;stroke-linejoin:miter;stroke-miterlimit:4;stroke-dasharray:none;stroke-dashoffset:0;stroke-opacity:1;color-rendering:auto;image-rendering:auto;shape-rendering:auto;text-rendering:auto;enable-background:accumulate"/><path d="m -512.66633,940.26068 c 0.13196,-0.004 0.27361,0.0418 0.41673,0.14913 l 2.34316,1.75685 c 0.7333,0.54927 1.2811,1.30714 1.57095,2.17564 l 0.93154,2.80278 c -0.0905,0.027 -0.18326,0.0447 -0.2717,0.0797 l -0.0898,0.0347 c -0.51086,0.20224 -0.97793,0.48531 -1.39935,0.82735 -0.0149,-0.0301 -0.19178,-0.39033 -0.45555,-0.84983 -0.27453,-0.47822 -0.62176,-1.02768 -0.92745,-1.31967 -0.39958,-0.38167 -0.85456,-0.71309 -1.3442,-0.98262 -0.86997,-1.17974 -1.12601,-2.45936 -1.37689,-3.68938 -0.0719,-0.35221 0.0449,-0.66903 0.24719,-0.84166 0.10124,-0.0863 0.22348,-0.13933 0.35546,-0.143 z" id="path40637" style="color:#000000;font-style:normal;font-variant:normal;font-weight:normal;font-stretch:normal;font-size:medium;line-height:normal;font-family:sans-serif;text-indent:0;text-align:start;text-decoration:none;text-decoration-line:none;text-decoration-style:solid;text-decoration-color:#000000;letter-spacing:normal;word-spacing:normal;text-transform:none;direction:ltr;writing-mode:lr-tb;baseline-shift:baseline;text-anchor:start;white-space:normal;clip-rule:nonzero;display:inline;overflow:visible;visibility:visible;opacity:1;isolation:auto;mix-blend-mode:normal;color-interpolation:sRGB;color-interpolation-filters:linearRGB;solid-color:#000000;solid-opacity:1;fill:#fde8e7;fill-opacity:1;fill-rule:evenodd;stroke:none;stroke-width:0.08;stroke-linecap:butt;stroke-linejoin:miter;stroke-miterlimit:4;stroke-dasharray:none;stroke-dashoffset:0;stroke-opacity:1;color-rendering:auto;image-rendering:auto;shape-rendering:auto;text-rendering:auto;enable-background:accumulate"/><path d="m -512.1875,944.45009 c 0.0963,0.16202 0.17784,0.32561 0.29492,0.48438 0.48964,0.26953 0.94612,0.60075 1.3457,0.98242 0.3057,0.29199 0.65126,0.84209 0.92579,1.32031 0.26377,0.4595 0.44213,0.81951 0.45703,0.84961 0.10094,-0.0819 0.2122,-0.14975 0.31836,-0.22461 -0.066,-0.13284 -0.16108,-0.33298 -0.38477,-0.72266 -0.28959,-0.50447 -0.66069,-1.0827 -0.96875,-1.37695 -0.57288,-0.5472 -1.24891,-1.00252 -1.98828,-1.3125 z" id="path42234" style="color:#000000;font-style:normal;font-variant:normal;font-weight:normal;font-stretch:normal;font-size:medium;line-height:normal;font-family:sans-serif;text-indent:0;text-align:start;text-decoration:none;text-decoration-line:none;text-decoration-style:solid;text-decoration-color:#000000;letter-spacing:normal;word-spacing:normal;text-transform:none;direction:ltr;writing-mode:lr-tb;baseline-shift:baseline;text-anchor:start;white-space:normal;clip-rule:nonzero;display:inline;overflow:visible;visibility:visible;opacity:1;isolation:auto;mix-blend-mode:normal;color-interpolation:sRGB;color-interpolation-filters:linearRGB;solid-color:#000000;solid-opacity:1;fill:#ead7d6;fill-opacity:1;fill-rule:evenodd;stroke:none;stroke-width:0.07999999;stroke-linecap:butt;stroke-linejoin:miter;stroke-miterlimit:4;stroke-dasharray:none;stroke-dashoffset:0;stroke-opacity:1;color-rendering:auto;image-rendering:auto;shape-rendering:auto;text-rendering:auto;enable-background:accumulate"/><path d="m -516.79102,943.34853 c 0.0772,-0.002 0.16373,0.01 0.25782,0.0371 l 3.68554,1.0664 c 0.88575,0.25611 1.69057,0.75714 2.34766,1.38477 0.2777,0.26525 0.61199,0.78743 0.87305,1.24219 0.25674,0.44726 0.43533,0.81565 0.4414,0.82812 -0.29144,0.24451 -0.5635,0.51493 -0.79492,0.82031 l -0.0605,0.0801 c -0.2047,0.27013 -0.35872,0.56971 -0.46289,0.88672 -2.68433,-0.80795 -5.17483,-2.5105 -6.64257,-5.07812 -0.19596,-0.3428 -0.22387,-0.71032 -0.11329,-0.95703 0.0553,-0.12335 0.14376,-0.21659 0.26368,-0.26758 0.0599,-0.0255 0.12786,-0.0411 0.20507,-0.043 z" id="path40635" style="color:#000000;font-style:normal;font-variant:normal;font-weight:normal;font-stretch:normal;font-size:medium;line-height:normal;font-family:sans-serif;text-indent:0;text-align:start;text-decoration:none;text-decoration-line:none;text-decoration-style:solid;text-decoration-color:#000000;letter-spacing:normal;word-spacing:normal;text-transform:none;direction:ltr;writing-mode:lr-tb;baseline-shift:baseline;text-anchor:start;white-space:normal;clip-rule:nonzero;display:inline;overflow:visible;visibility:visible;opacity:1;isolation:auto;mix-blend-mode:normal;color-interpolation:sRGB;color-interpolation-filters:linearRGB;solid-color:#000000;solid-opacity:1;fill:#fde8e7;fill-opacity:1;fill-rule:evenodd;stroke:none;stroke-width:0.08;stroke-linecap:butt;stroke-linejoin:miter;stroke-miterlimit:4;stroke-dasharray:none;stroke-dashoffset:0;stroke-opacity:1;color-rendering:auto;image-rendering:auto;shape-rendering:auto;text-rendering:auto;enable-background:accumulate"/><path d="m -497.11711,963.19978 c 0.75788,0 1.37779,0.51633 1.82544,1.24737 0.44763,0.73115 0.71732,1.67256 0.77492,2.50088 0.0616,0.8871 -0.20632,1.58663 -0.67962,2.0637 -0.4733,0.47707 -1.15311,0.73561 -1.92074,0.73561 -0.76762,0 -1.44952,-0.25854 -1.92282,-0.73561 -0.23926,-0.24113 -0.4246,-0.54115 -0.54287,-0.89091 a 0.04243883,0.04243883 0 0 0 -0.006,-0.0286 0.04243883,0.04243883 0 0 0 -0.002,0 c -0.10831,-0.3348 -0.15804,-0.71428 -0.12846,-1.13958 0.0576,-0.82832 0.32935,-1.76973 0.77699,-2.50088 0.44764,-0.73104 1.06755,-1.24736 1.82543,-1.24736 z" id="path11615" style="color:#000000;font-style:normal;font-variant:normal;font-weight:normal;font-stretch:normal;font-size:medium;line-height:normal;font-family:sans-serif;text-indent:0;text-align:start;text-decoration:none;text-decoration-line:none;text-decoration-style:solid;text-decoration-color:#000000;letter-spacing:normal;word-spacing:normal;text-transform:none;direction:ltr;writing-mode:lr-tb;baseline-shift:baseline;text-anchor:start;white-space:normal;clip-rule:nonzero;display:inline;overflow:visible;visibility:visible;opacity:1;isolation:auto;mix-blend-mode:normal;color-interpolation:sRGB;color-interpolation-filters:linearRGB;solid-color:#000000;solid-opacity:1;fill:#ffd158;fill-opacity:1;fill-rule:nonzero;stroke:none;stroke-width:0.08;stroke-linecap:round;stroke-linejoin:round;stroke-miterlimit:4;stroke-dasharray:none;stroke-dashoffset:0;stroke-opacity:1;color-rendering:auto;image-rendering:auto;shape-rendering:auto;text-rendering:auto;enable-background:accumulate"/><path d="m -506.57005,946.70006 c 0.39652,0 0.79203,0.076 1.16694,0.22441 l 0.47533,0.18769 c 0.63816,0.25261 1.17447,0.70621 1.52804,1.28934 l 1.56882,2.5848 c 0.61701,1.01776 0.45435,2.31868 -0.39373,3.15805 l -0.19585,0.19381 c -0.30114,0.29799 -0.65929,0.53302 -1.05473,0.68955 l -0.24277,0.0959 c -1.15716,0.45807 -2.44087,0.49618 -3.6232,0.1061 l -0.15301,-0.051 c -0.64624,-0.1772 -1.24212,-0.50031 -1.7402,-0.94456 -0.97803,-0.95405 -1.53238,-2.25209 -1.5423,-3.61096 0,-0.67322 0.22014,-1.32803 0.62834,-1.86669 l 0.0612,-0.0837 c 0.57978,-0.76508 1.36109,-1.35845 2.25838,-1.71367 l 0.0897,-0.0347 c 0.37489,-0.14841 0.77244,-0.22441 1.16897,-0.22441 z" id="path40633" style="color:#000000;font-style:normal;font-variant:normal;font-weight:normal;font-stretch:normal;font-size:medium;line-height:normal;font-family:sans-serif;text-indent:0;text-align:start;text-decoration:none;text-decoration-line:none;text-decoration-style:solid;text-decoration-color:#000000;letter-spacing:normal;word-spacing:normal;text-transform:none;direction:ltr;writing-mode:lr-tb;baseline-shift:baseline;text-anchor:start;white-space:normal;clip-rule:nonzero;display:inline;overflow:visible;visibility:visible;opacity:1;isolation:auto;mix-blend-mode:normal;color-interpolation:sRGB;color-interpolation-filters:linearRGB;solid-color:#000000;solid-opacity:1;fill:#fffdf5;fill-opacity:1;fill-rule:evenodd;stroke:none;stroke-width:0.08000001;stroke-linecap:butt;stroke-linejoin:miter;stroke-miterlimit:4;stroke-dasharray:none;stroke-dashoffset:0;stroke-opacity:1;color-rendering:auto;image-rendering:auto;shape-rendering:auto;text-rendering:auto;enable-background:accumulate"/><path d="m -507.11918,950.09845 a 0.74918818,0.74921262 0 0 0 0.74919,0.7492 0.74918818,0.74921262 0 0 0 0.74919,-0.7492 0.74918818,0.74921262 0 0 0 -0.74919,-0.7492 0.74918818,0.74921262 0 0 0 -0.74919,0.7492 z" id="path11599" style="opacity:1;fill:#43b6c2;fill-opacity:1;stroke:none;stroke-width:0.1;stroke-linecap:round;stroke-linejoin:round;stroke-miterlimit:4;stroke-dasharray:none;stroke-dashoffset:0;stroke-opacity:1"/><path d="m -503.46875,952.2372 a 0.50005,0.50005 0 0 0 -0.1543,0.96094 c 0,0 0.65159,0.31269 1.20117,0.39648 0.19413,0.0296 0.40156,0.0213 0.60157,0.0176 0.18484,-0.31446 0.30414,-0.65874 0.34375,-1.01367 -0.2363,0.0128 -0.64114,0.0312 -0.79492,0.008 -0.22175,-0.0338 -0.95313,-0.32422 -0.95313,-0.32422 a 0.50005,0.50005 0 0 0 -0.19336,-0.0449 0.50005,0.50005 0 0 0 -0.0508,0 z" id="path11601" style="color:#000000;font-style:normal;font-variant:normal;font-weight:normal;font-stretch:normal;font-size:medium;line-height:normal;font-family:sans-serif;text-indent:0;text-align:start;text-decoration:none;text-decoration-line:none;text-decoration-style:solid;text-decoration-color:#000000;letter-spacing:normal;word-spacing:normal;text-transform:none;direction:ltr;writing-mode:lr-tb;baseline-shift:baseline;text-anchor:start;white-space:normal;clip-rule:nonzero;display:inline;overflow:visible;visibility:visible;opacity:1;isolation:auto;mix-blend-mode:normal;color-interpolation:sRGB;color-interpolation-filters:linearRGB;solid-color:#000000;solid-opacity:1;fill:#fde8e7;fill-opacity:1;fill-rule:evenodd;stroke:none;stroke-width:1;stroke-linecap:round;stroke-linejoin:round;stroke-miterlimit:4;stroke-dasharray:none;stroke-dashoffset:0;stroke-opacity:1;color-rendering:auto;image-rendering:auto;shape-rendering:auto;text-rendering:auto;enable-background:accumulate"/></g></g></svg>